<svg xmlns="http://www.w3.org/2000/svg" width="24" height="24" viewBox="0 0 24 24">
  <path d="M6.70516965,7.57206663 L6.70516965,17.6319556 C6.70516965,18.9395188 7.76523134,20 9.07279457,20 L15.5128686,20 C16.8200123,20 17.8804935,18.9399383 17.8804935,17.6319556 L17.8804935,7.57206663 L6.70516965,7.57206663 Z M9.87696484,17.027045 C9.87696484,17.3295003 9.63030228,17.5753239 9.32784701,17.5753239 C9.02581123,17.5753239 8.77956817,17.3295003 8.77956817,17.027045 L8.77956817,9.76769895 C8.77956817,9.46482418 9.02581123,9.21983961 9.32784701,9.21983961 C9.63030228,9.21983961 9.87696484,9.46482418 9.87696484,9.76769895 L9.87696484,17.027045 Z M12.8406909,17.027045 C12.8406909,17.3295003 12.5957064,17.5753239 12.2924121,17.5753239 C11.9891178,17.5753239 11.7432943,17.3295003 11.7432943,17.027045 L11.7432943,9.76769895 C11.7432943,9.46482418 11.9891178,9.21983961 12.2924121,9.21983961 C12.5957064,9.21983961 12.8406909,9.46482418 12.8406909,9.76769895 L12.8406909,17.027045 Z M15.8048365,17.027045 C15.8048365,17.3295003 15.5585935,17.5753239 15.2565577,17.5753239 C14.9532634,17.5753239 14.7061814,17.3295003 14.7061814,17.027045 L14.7061814,9.76769895 C14.7061814,9.46482418 14.9532634,9.21983961 15.2565577,9.21983961 C15.5585935,9.21983961 15.8048365,9.46482418 15.8048365,9.76769895 L15.8048365,17.027045 Z M16.2163603,4.85626157 C17.5247625,4.85626157 18.5848242,5.63484269 18.5848242,6.59548427 L18.5848242,6.6579889 L6,6.6579889 L6,6.59548427 C6,5.63484269 7.06006169,4.85626157 8.36804442,4.85626157 L9.40293646,4.85626157 C9.40125848,4.82731647 9.39412708,4.80004935 9.39412708,4.77110426 C9.39412708,3.79536089 10.189488,3 11.1652313,3 L13.4200123,3 C14.3957557,3 15.1911166,3.79494139 15.1911166,4.77110426 C15.1911166,4.80004935 15.1831462,4.82731647 15.1823072,4.85626157 L16.2163603,4.85626157 Z M10.115657,4.77110426 C10.115657,4.80004935 10.1211104,4.82773597 10.1244664,4.85626157 L14.4616163,4.85626157 C14.4637138,4.82773597 14.4704257,4.80004935 14.4704257,4.77110426 C14.4704257,4.19220234 13.9989143,3.72069093 13.4200123,3.72069093 L11.1652313,3.72069093 C10.5863294,3.72069093 10.115657,4.19220234 10.115657,4.77110426 Z"/>
</svg>
