<svg xmlns="http://www.w3.org/2000/svg" width="24" height="24" viewBox="0 0 24 24">
  <path fill-rule="evenodd" d="M12.0014545,13.7730909 L4,8.69381818 L4,16.6647273 C4,17.4829091 4.67272727,18.1410909 5.49818182,18.1410909 L18.4981818,18.1410909 C19.3309091,18.1410909 20,17.4829091 20,16.6647273 L20,8.69381818 L12.0014545,13.7730909 Z M5.49818182,5.00072727 C4.72581818,5.00072727 4.09018182,5.58036364 4.00945455,6.32218182 C4.00509091,6.37309091 4,6.42181818 4,6.47709091 L12.0014545,11.5527273 L20,6.47709091 C20,6.41963636 19.9978182,6.36654545 19.9905455,6.312 C19.9069091,5.57745455 19.2741818,5 18.4974545,5 L5.49818182,5 L5.49818182,5.00072727 Z"/>
</svg>
