<svg xmlns="http://www.w3.org/2000/svg" width="24" height="24" viewBox="0 0 24 24">
  <path fill-rule="evenodd" d="M12.7406987,13.3684536 L14.7835711,11.8158799 L16,12.6882875 L12,15.7282691 L8,12.6882875 L9.21642892,11.8158799 L11.2593013,13.3684536 C11.2531795,13.3298697 11.25,13.2903062 11.25,13.25 L11.25,5.52207453 C11.25,5.10786097 11.5857864,4.77207453 12,4.77207453 C12.4142136,4.77207453 12.75,5.10786097 12.75,5.52207453 L12.75,13.25 C12.75,13.2903062 12.7468205,13.3298697 12.7406987,13.3684536 Z M18,18 L18,15 L20,15 L20,18 L20,20 L4,20 L4,18 L4,15 L6,15 L6,18 L18,18 Z"/>
</svg>
