<svg xmlns="http://www.w3.org/2000/svg" width="24" height="24" viewBox="0 0 24 24">
  <path d="M11.9995789,4 C7.58147368,4 4,7.58180048 4,11.9997895 C4,16.4181995 7.58147368,20 11.9995789,20 C16.4181053,20 20,16.4181995 20,11.9997895 C20,7.58180048 16.4181053,4 11.9995789,4 Z M12.8134737,16.0910502 L10.9987368,16.0910502 L10.9987368,14.5479329 L12.8134737,14.5479329 L12.8134737,16.0910502 Z M14.5633684,11.0292887 C14.2564211,11.4739086 13.8732632,11.8461093 13.4122105,12.146733 C13.1612632,12.3399911 12.9970526,12.5349333 12.9187368,12.7302966 C12.8404211,12.9256599 12.8012632,13.1942844 12.8012632,13.5357491 L11.0050526,13.5357491 C11.0092632,12.9597642 11.0947368,12.5378806 11.2610526,12.2700982 C11.4277895,12.0027368 11.76,11.6776927 12.2581053,11.2949659 C12.5503158,11.0562354 12.784,10.798979 12.9591579,10.5231968 C13.1334737,10.2478356 13.2214737,9.93879108 13.2214737,9.59732639 C13.2214737,9.21881003 13.1212632,8.92239678 12.9212632,8.70850767 C12.7221053,8.49461856 12.4370526,8.38767401 12.0665263,8.38767401 C11.7621053,8.38767401 11.504,8.47819794 11.2917895,8.65924581 C11.0795789,8.84029368 10.9717895,9.1059709 10.9675789,9.45543538 L9.21431579,9.45543538 L9.20210526,9.41838373 C9.18989474,8.62850978 9.45010526,8.02347307 9.98273684,7.60369464 C10.5157895,7.18391621 11.2101053,6.97381648 12.0661053,6.97381648 C12.9882105,6.97381648 13.7111579,7.20749454 14.2357895,7.67442962 C14.7604211,8.1413647 15.0227368,8.77629536 15.0227368,9.57880056 C15.0231579,10.1017342 14.8698947,10.5850899 14.5633684,11.0292887 Z"/>
</svg>
