<svg xmlns="http://www.w3.org/2000/svg" width="24" height="24" viewBox="0 0 24 24">
  <path d="M18.4,4 L8.8,4 C7.92,4 7.2,4.72 7.2,5.6 L7.2,15.2 C7.2,16.08 7.92,16.8 8.8,16.8 L18.4,16.8 C19.28,16.8 20,16.08 20,15.2 L20,5.6 C20,4.72 19.28,4 18.4,4 Z M11.6,10 C11.6,10.664 11.064,11.2 10.4,11.2 L9.6,11.2 L9.6,12.8 L8.4,12.8 L8.4,8 L10.4,8 C11.064,8 11.6,8.536 11.6,9.2 L11.6,10 Z M15.6,11.6 C15.6,12.264 15.064,12.8 14.4,12.8 L12.4,12.8 L12.4,8 L14.4,8 C15.064,8 15.6,8.536 15.6,9.2 L15.6,11.6 Z M18.8,9.2 L17.6,9.2 L17.6,10 L18.8,10 L18.8,11.2 L17.6,11.2 L17.6,12.8 L16.4,12.8 L16.4,8 L18.8,8 L18.8,9.2 Z M9.6,10 L10.4,10 L10.4,9.2 L9.6,9.2 L9.6,10 Z M5.6,7.2 L4,7.2 L4,18.4 C4,19.28 4.72,20 5.6,20 L16.8,20 L16.8,18.4 L5.6,18.4 L5.6,7.2 Z M13.6,11.6 L14.4,11.6 L14.4,9.2 L13.6,9.2 L13.6,11.6 Z"/>
</svg>
