<svg xmlns="http://www.w3.org/2000/svg" width="24" height="24" viewBox="0 0 24 24">
  <path d="M19.9452152,17.575069 C19.3030431,16.5321756 15.5372814,13.1678624 15.5372814,13.1678624 C16.036183,12.277694 16.3219969,11.2537093 16.3219969,10.1635439 C16.3219969,6.75850406 13.5634928,4 10.1606348,4 C6.75777679,4 4,6.75850406 4,10.1642711 C4,13.5671291 6.75850406,16.3256332 10.1613621,16.3256332 C11.3831619,16.3256332 12.5213267,15.9649113 13.4784032,15.3489206 C13.4784032,15.3489206 16.6310832,19.255771 17.8245198,19.697219 C18.527782,19.9568514 20.3364821,18.2121503 19.9452152,17.575069 Z M5.99996999,10.1642711 C6.00433356,7.86394201 7.86321475,6.00506082 10.1613621,5.99996999 C12.4616912,6.00433356 14.3212996,7.86321475 14.3256632,10.1642711 C14.3212996,12.4624185 12.4624185,14.3205724 10.1613621,14.3256632 C7.86321475,14.3205724 6.00433356,12.4616912 5.99996999,10.1642711 Z"/>
</svg>
