<svg xmlns="http://www.w3.org/2000/svg" width="24" height="24" viewBox="0 0 24 24">
  <path d="M20,12.712927 L20,11.2680197 C20,10.8709971 19.765128,10.5115766 19.4015136,10.3521666 L18.5418182,9.97527273 C18.4254545,9.59927273 18.2741818,9.23854545 18.0996364,8.89090909 L18.5312987,7.78714715 C18.6759773,7.41720354 18.5879754,6.99670264 18.3070927,6.71581995 L17.2874129,5.6961402 C17.0067354,5.41546271 16.5866194,5.32736601 16.2168306,5.47164325 L15.1105455,5.90327273 C14.7738182,5.73090909 14.4174545,5.584 14.0501818,5.46690909 L13.6690201,4.59820491 C13.5095432,4.23474172 13.1502015,4 12.7532905,4 L11.3096538,4 C10.9118006,4 10.5517935,4.23584368 10.3928843,4.60058334 L10.024,5.44727273 C9.65018182,5.55927273 9.29018182,5.70472727 8.94836364,5.87490909 L7.86130286,5.45053101 C7.4917283,5.30625265 7.07181062,5.39410023 6.79106425,5.67442695 L5.76963627,6.69432813 C5.4885336,6.97501061 5.40022182,7.39546428 5.54464317,7.76552352 L5.94836364,8.8 C5.75127273,9.17163636 5.58545455,9.56654545 5.45818182,9.97527273 L4.59848637,10.3521666 C4.23487204,10.5115766 4,10.8709971 4,11.2680197 L4,12.712927 C4,13.109653 4.23452556,13.4688637 4.59773795,13.6284515 L5.45163636,14.0036364 C5.55563636,14.3403636 5.68436364,14.6683636 5.83563636,14.984 L5.27854657,16.4101091 C5.13406249,16.7799778 5.22211035,17.2002922 5.50289361,17.4810754 L6.52249979,18.5006816 C6.80331414,18.781496 7.22368687,18.8695295 7.59357898,18.7249846 L9.01890909,18.168 C9.34036364,18.3236364 9.67563636,18.4530909 10.0232727,18.5585455 L10.391983,19.4035597 C10.5510135,19.7680276 10.9108791,20.0036364 11.3085316,20.0036364 L12.7525632,20.0036364 C13.1494743,20.0036364 13.5088159,19.7688946 13.6682928,19.4054315 L14.0494545,18.5367273 C14.3650909,18.4370909 14.6734545,18.3156364 14.9672727,18.1738182 L16.3218347,18.7025991 C16.6918483,18.8470414 17.1122723,18.7587969 17.3929827,18.4777714 L18.4128561,17.4567533 C18.6935561,17.1757384 18.7813338,16.7552355 18.6364971,16.385392 L18.1207273,15.0683636 C18.2938182,14.7265455 18.4363636,14.3730909 18.5483636,14.0036364 L19.402262,13.6284515 C19.7654744,13.4688637 20,13.109653 20,12.712927 Z M12,16 C9.790861,16 8,14.209139 8,12 C8,9.790861 9.790861,8 12,8 C14.209139,8 16,9.790861 16,12 C16,14.209139 14.209139,16 12,16 Z"/>
</svg>
