<svg xmlns="http://www.w3.org/2000/svg" width="24" height="24" viewBox="0 0 24 24">
  <path d="M19.8700667,8.01135547 C19.7609676,6.9596396 19.3587553,6.02793281 18.5754234,5.28096725 C17.7535431,4.49545332 16.7454669,4.14851801 15.6413834,4.09033179 C13.7619686,3.98777858 9.29544914,3.92304642 7.72805793,4.17833844 C5.93664978,4.46999686 4.76347018,5.51662143 4.26670536,7.28620975 C3.88704029,8.64776722 3.95977306,14.921696 4.18451733,16.266525 C4.48781298,18.1073914 5.57444058,19.2863896 7.39785115,19.757698 C8.65976472,20.0828135 14.8631428,20.0399011 16.255248,19.8158842 C18.0961144,19.5169525 19.2816586,18.4361435 19.7602402,16.6163696 C20.1260861,15.2191731 19.9973491,9.27326905 19.8700667,8.01135547 M18.3965008,16.006869 C18.1833937,17.4047928 17.2553236,18.2688582 15.8515811,18.4245063 C14.5605744,18.5656079 8.79504768,18.6434319 7.60004825,18.3081339 C6.45450711,17.988837 5.79845751,17.2018684 5.60862498,16.0475993 C5.42679305,14.9486072 5.38242606,9.44564571 5.60571567,7.97498909 C5.81736803,6.58797514 6.74398354,5.72463715 8.14118007,5.56753437 C9.5594691,5.40897693 14.659491,5.39079374 16.0174118,5.60026412 C17.4131537,5.81409846 18.2757644,6.74289595 18.4277759,8.14954774 C18.5732414,9.46310158 18.6139718,14.5958532 18.3965008,16.006869 M11.9996536,7.89280106 C9.73402775,7.89280106 7.89679796,9.72857619 7.89970727,11.9992933 C7.89970727,14.2583732 9.73184577,16.093421 11.9909256,16.0970576 C14.2609154,16.1021489 16.1010545,14.2692831 16.1025092,11.9992933 C16.1039638,9.72930352 14.2696433,7.89425571 11.9996536,7.89280106 M11.9727424,14.6482208 C10.5253603,14.6453115 9.34927139,13.4510394 9.34927139,11.9854741 C9.34927139,10.5220907 10.5362702,9.34236518 12.0120181,9.34236518 C13.4746742,9.34309251 14.6558544,10.531546 14.6558544,12.0043846 C14.6536724,13.4764959 13.4623096,14.6504028 11.9727424,14.6482208 M17.2218665,7.74006224 C17.2204119,8.27173879 16.7941978,8.69504352 16.2610666,8.69504352 C15.7257534,8.69504352 15.305358,8.2746481 15.300994,7.74006224 C15.2973574,7.20038508 15.7286627,6.76980707 16.2705219,6.77562569 C16.8014711,6.77780768 17.2233212,7.2062037 17.2218665,7.74006224"/>
</svg>
