<svg xmlns="http://www.w3.org/2000/svg" width="24" height="24" viewBox="0 0 24 24">
  <path fill-rule="evenodd" d="M5.64794895,16.8856119 C5.04211928,16.68779 4.63556612,16.2914188 4.41810745,15.692862 C3.88573372,14.2295615 3.72936712,8.11235463 4.75193196,6.90796816 C5.10321135,6.4955967 5.55485628,6.25486486 6.09086644,6.19740923 C8.84873692,5.90067633 17.3761713,5.94213166 18.3587354,6.29704748 C18.9347463,6.50359685 19.3434814,6.88033127 19.5653038,7.45706948 C20.147133,8.96764358 20.167497,14.4695661 19.4889387,15.9248664 C19.3034806,16.319783 19.0038386,16.5997883 18.6234677,16.7983375 C17.5950846,17.3379841 7.00070187,17.3314385 5.64794895,16.8856119 Z M10.0305775,14.0179212 C11.6887908,13.1568139 13.3339129,12.3044341 15.0001263,11.441145 C13.331731,10.5713103 11.6873362,9.71238497 10.0305775,8.84836859 L10.0305775,14.0179212 Z"/>
</svg>
