<svg xmlns="http://www.w3.org/2000/svg" width="24" height="24" viewBox="0 0 24 24">
  <path d="M20,6.53890909 C19.4109091,6.8 18.7781818,6.97672727 18.1149091,7.056 C18.7927273,6.64945455 19.3127273,6.00727273 19.5578182,5.24 C18.9243636,5.61672727 18.2218182,5.89018182 17.4741818,6.03709091 C16.8749091,5.39854545 16.0210909,5 15.0770909,5 C13.2647273,5 11.7941818,6.46981818 11.7941818,8.28290909 C11.7941818,8.54036364 11.8232727,8.79054545 11.8785455,9.03054545 C9.15054545,8.89381818 6.73236364,7.58763636 5.11272727,5.60072727 C4.83054545,6.08581818 4.66909091,6.64945455 4.66909091,7.25163636 C4.66909091,8.38981818 5.24872727,9.39563636 6.12872727,9.984 C5.59127273,9.968 5.08436364,9.81818182 4.64218182,9.57309091 L4.64218182,9.61454545 C4.64218182,11.2058182 5.77381818,12.5323636 7.27490909,12.8341818 C7,12.9090909 6.70909091,12.9498182 6.41090909,12.9498182 C6.19927273,12.9498182 5.99345455,12.9287273 5.79272727,12.8901818 C6.21018182,14.1941818 7.42181818,15.1432727 8.85890909,15.1701818 C7.736,16.0501818 6.32145455,16.576 4.78254545,16.576 C4.51781818,16.576 4.25672727,16.56 4,16.5301818 C5.45236364,17.4603636 7.17818182,18.0043636 9.03272727,18.0043636 C15.0705455,18.0043636 18.3716364,13.0029091 18.3716364,8.66472727 C18.3716364,8.52290909 18.3687273,8.38109091 18.3629091,8.23927273 C19.0029091,7.77527273 19.5592727,7.19709091 20,6.53890909 Z"/>
</svg>
