<svg xmlns="http://www.w3.org/2000/svg" width="24" height="24" viewBox="0 0 24 24">
  <path d="M18.6992256,4 L5.17089979,4 C4.52488629,4 4.00004594,4.51243105 4.00004594,5.14457534 L4.00004594,18.727648 C4.00004594,19.3597923 4.52488629,19.8736833 5.17089979,19.8736833 L18.6984956,19.8736833 C19.345969,19.8736833 19.8729992,19.3597923 19.8729992,18.727648 L19.8729992,5.14457534 C19.8737292,4.51243105 19.345969,4 18.6992256,4 Z M8.70755,17.5254059 L6.35270303,17.5254059 L6.35270303,9.95062384 L8.70827996,9.95062384 L8.70827996,17.5254059 L8.70755,17.5254059 Z M7.53012652,8.91554231 C6.77534916,8.91554231 6.16583359,8.30383687 6.16583359,7.55051942 C6.16583359,6.79647202 6.77534916,6.18403662 7.53012652,6.18403662 C8.282714,6.18403662 8.89441945,6.79574206 8.89441945,7.55051942 C8.89441945,8.30383687 8.282714,8.91554231 7.53012652,8.91554231 Z M17.5254519,17.5254059 L15.1727948,17.5254059 L15.1727948,13.841304 C15.1727948,12.9631637 15.1574656,11.8331875 13.9493839,11.8331875 C12.7245131,11.8331875 12.5361837,12.7908934 12.5361837,13.7785276 L12.5361837,17.5254059 L10.1835266,17.5254059 L10.1835266,9.95062384 L12.442019,9.95062384 L12.442019,10.9857054 L12.4734073,10.9857054 C12.7887494,10.390789 13.5566661,9.76229448 14.7019714,9.76229448 C17.0860167,9.76229448 17.5247219,11.3302459 17.5247219,13.3704806 L17.5247219,17.5254059 L17.5254519,17.5254059 Z"/>
</svg>
