<svg width="24" height="24" viewBox="0 0 24 24" fill="none" xmlns="http://www.w3.org/2000/svg">
<path fill-rule="evenodd" clip-rule="evenodd" d="M12 3.3C7.19513 3.3 3.3 7.19512 3.3 12C3.3 16.8049 7.19513 20.7 12 20.7C16.8049 20.7 20.7 16.8049 20.7 12C20.7 7.19512 16.8049 3.3 12 3.3ZM4.7 12C4.7 7.96832 7.96832 4.7 12 4.7C16.0317 4.7 19.3 7.96832 19.3 12C19.3 16.0317 16.0317 19.3 12 19.3C7.96832 19.3 4.7 16.0317 4.7 12ZM15.0546 8.65454L11.194 13.8019L8.8779 11.4857L7.84938 12.5143L11.3514 16.0163L16.2182 9.52727L15.0546 8.65454Z" fill="black"/>
</svg>
