<svg width="24" height="24" viewBox="0 0 24 24" fill="none" xmlns="http://www.w3.org/2000/svg">
<path fill-rule="evenodd" clip-rule="evenodd" d="M16.2164 4.85626H15.1823C15.1827 4.84257 15.1847 4.82925 15.1867 4.81595C15.1889 4.80114 15.1911 4.78636 15.1911 4.7711C15.1911 3.79494 14.3958 3 13.42 3H11.1652C10.1895 3 9.39413 3.79536 9.39413 4.7711C9.39413 4.78744 9.3964 4.80323 9.39868 4.8191V4.8191C9.40044 4.83135 9.40221 4.84365 9.40294 4.85626H8.36804C7.06006 4.85626 6 5.63484 6 6.59548V6.65799H18.5848V6.59548C18.5848 5.63484 17.5248 4.85626 16.2164 4.85626ZM6.70517 17.632V7.57207H17.8805V17.632C17.8805 18.9399 16.82 20 15.5129 20H9.07279C7.76523 20 6.70517 18.9395 6.70517 17.632ZM9.32785 17.5753C9.6303 17.5753 9.87696 17.3295 9.87696 17.027V9.7677C9.87696 9.46482 9.6303 9.21984 9.32785 9.21984C9.02581 9.21984 8.77957 9.46482 8.77957 9.7677V17.027C8.77957 17.3295 9.02581 17.5753 9.32785 17.5753ZM12.8407 17.027C12.8407 17.3295 12.5957 17.5753 12.2924 17.5753C11.9891 17.5753 11.7433 17.3295 11.7433 17.027V9.7677C11.7433 9.46482 11.9891 9.21984 12.2924 9.21984C12.5957 9.21984 12.8407 9.46482 12.8407 9.7677V17.027ZM15.2566 17.5753C15.5586 17.5753 15.8048 17.3295 15.8048 17.027V9.7677C15.8048 9.46482 15.5586 9.21984 15.2566 9.21984C14.9533 9.21984 14.7062 9.46482 14.7062 9.7677V17.027C14.7062 17.3295 14.9533 17.5753 15.2566 17.5753ZM11.1652 3.72069C10.5863 3.72069 10.1157 4.1922 10.1157 4.7711C10.1157 4.79188 10.1185 4.812 10.1213 4.83225C10.1224 4.84022 10.1235 4.84821 10.1245 4.85626H14.4616C14.4625 4.84464 14.4641 4.83317 14.4657 4.82169C14.4681 4.80498 14.4704 4.78826 14.4704 4.7711C14.4704 4.1922 13.9989 3.72069 13.42 3.72069H11.1652Z" fill="black"/>
</svg>
