<svg width="24" height="24" viewBox="0 0 24 24" fill="none" xmlns="http://www.w3.org/2000/svg">
<path fill-rule="evenodd" clip-rule="evenodd" d="M11.9996 3.3C7.19484 3.3 3.3 7.19523 3.3 11.9998C3.3 16.8047 7.19482 20.7 11.9996 20.7C16.8047 20.7 20.7 16.8048 20.7 11.9998C20.7 7.19516 16.8047 3.3 11.9996 3.3ZM4.7 11.9998C4.7 7.96837 7.9681 4.7 11.9996 4.7C16.0315 4.7 19.3 7.96844 19.3 11.9998C19.3 16.0316 16.0315 19.3 11.9996 19.3C7.96813 19.3 4.7 16.0317 4.7 11.9998ZM14.5634 11.5555C14.2564 12.0001 13.8733 12.3723 13.4122 12.6729C13.1613 12.8662 12.997 13.0611 12.9187 13.2565C12.8404 13.4518 12.8013 13.7205 12.8013 14.0619H11.005C11.0093 13.4859 11.0947 13.0641 11.261 12.7963C11.4278 12.5289 11.76 12.2039 12.2581 11.8211C12.5503 11.5824 12.784 11.3252 12.9592 11.0494C13.1335 10.774 13.2215 10.465 13.2215 10.1235C13.2215 9.74499 13.1213 9.44858 12.9213 9.23469C12.7221 9.0208 12.437 8.91386 12.0665 8.91386C11.7621 8.91386 11.504 9.00438 11.2918 9.18543C11.0796 9.36648 10.9718 9.63215 10.9676 9.98162H9.21431L9.2021 9.94457C9.18989 9.15469 9.4501 8.54966 9.98273 8.12988C10.5158 7.7101 11.2101 7.5 12.0661 7.5C12.9882 7.5 13.7112 7.73368 14.2358 8.20061C14.7604 8.66755 15.0227 9.30248 15.0227 10.105C15.0232 10.6279 14.8699 11.1113 14.5634 11.5555ZM12.8135 15.8457C12.8135 16.2718 12.468 16.6172 12.0419 16.6172H11.7703C11.3442 16.6172 10.9987 16.2718 10.9987 15.8457C10.9987 15.4196 11.3442 15.0741 11.7703 15.0741H12.0419C12.468 15.0741 12.8135 15.4196 12.8135 15.8457Z" fill="black"/>
</svg>
