<svg width="24" height="24" viewBox="0 0 24 24" fill="none" xmlns="http://www.w3.org/2000/svg">
<g id="help">
<path id="help_2" fill-rule="evenodd" clip-rule="evenodd" d="M11.9996 4C7.58147 4 4 7.5818 4 11.9998C4 16.4182 7.58147 20 11.9996 20C16.4181 20 20 16.4182 20 11.9998C20 7.5818 16.4181 4 11.9996 4ZM12.8135 16.0911H10.9987V14.5479H12.8135V16.0911ZM13.4122 12.1467C13.8733 11.8461 14.2564 11.4739 14.5634 11.0293C14.8699 10.5851 15.0232 10.1017 15.0227 9.5788C15.0227 8.7763 14.7604 8.14136 14.2358 7.67443C13.7112 7.20749 12.9882 6.97382 12.0661 6.97382C11.2101 6.97382 10.5158 7.18392 9.98274 7.60369C9.45011 8.02347 9.1899 8.62851 9.20211 9.41838L9.21432 9.45544H10.9676C10.9718 9.10597 11.0796 8.84029 11.2918 8.65925C11.504 8.4782 11.7621 8.38767 12.0665 8.38767C12.4371 8.38767 12.7221 8.49462 12.9213 8.70851C13.1213 8.9224 13.2215 9.21881 13.2215 9.59733C13.2215 9.93879 13.1335 10.2478 12.9592 10.5232C12.784 10.799 12.5503 11.0562 12.2581 11.295C11.76 11.6777 11.4278 12.0027 11.2611 12.2701C11.0947 12.5379 11.0093 12.9598 11.0051 13.5357H12.8013C12.8013 13.1943 12.8404 12.9257 12.9187 12.7303C12.9971 12.5349 13.1613 12.34 13.4122 12.1467Z" fill="black"/>
</g>
</svg>
