<svg width="24" height="24" viewBox="0 0 24 24" fill="none" xmlns="http://www.w3.org/2000/svg">
<path fill-rule="evenodd" clip-rule="evenodd" d="M4.7 12C4.7 7.96832 7.96832 4.7 12 4.7C16.0317 4.7 19.3 7.96832 19.3 12C19.3 16.0317 16.0317 19.3 12 19.3C7.96832 19.3 4.7 16.0317 4.7 12ZM12 3.3C7.19513 3.3 3.3 7.19512 3.3 12C3.3 16.8049 7.19513 20.7 12 20.7C16.8049 20.7 20.7 16.8049 20.7 12C20.7 7.19512 16.8049 3.3 12 3.3ZM11 8.00952C11 8.27619 11.0962 8.50793 11.2887 8.70476C11.4811 8.90159 11.7148 9 11.9897 9C12.2646 9 12.5017 8.90159 12.701 8.70476C12.9003 8.50793 13 8.27619 13 8.00952C13 7.73016 12.9003 7.49206 12.701 7.29524C12.5017 7.09841 12.2646 7 11.9897 7C11.7148 7 11.4811 7.09841 11.2887 7.29524C11.0962 7.49206 11 7.73016 11 8.00952ZM13 16.409C12.9843 15.6038 12.9726 14.7816 12.9647 13.9422C12.9569 13.1028 12.9451 12.2805 12.9294 11.4754C12.851 11.3126 12.7216 11.1927 12.5412 11.1156C12.3608 11.0385 12.1686 11 11.9647 11C11.7451 11 11.549 11.0428 11.3765 11.1285C11.2039 11.2141 11.0784 11.3426 11 11.5139C11.0157 12.3191 11.0275 13.1413 11.0353 13.9807C11.0431 14.8201 11.0549 15.6424 11.0706 16.4475C11.1177 16.636 11.2353 16.7752 11.4235 16.8651C11.6118 16.955 11.8157 17 12.0353 17C12.2706 17 12.4863 16.9507 12.6824 16.8522C12.8784 16.7537 12.9843 16.606 13 16.409Z" fill="black"/>
</svg>
