<svg width="24" height="24" viewBox="0 0 24 24" fill="none" xmlns="http://www.w3.org/2000/svg">
<g id="settings">
<path id="Subtract" fill-rule="evenodd" clip-rule="evenodd" d="M20 12.7129C20 13.1097 19.7655 13.4689 19.4023 13.6285L18.5484 14.0036C18.4364 14.3731 18.2938 14.7265 18.1207 15.0684L18.6365 16.3854C18.7813 16.7552 18.6936 17.1757 18.4129 17.4568L17.393 18.4778C17.1123 18.7588 16.6918 18.847 16.3218 18.7026L14.9673 18.1738C14.6735 18.3156 14.3651 18.4371 14.0495 18.5367L13.6683 19.4054C13.5088 19.7689 13.1495 20.0036 12.7526 20.0036H11.3085C10.9109 20.0036 10.551 19.768 10.392 19.4036L10.0233 18.5585C9.67564 18.4531 9.34036 18.3236 9.01891 18.168L7.59358 18.725C7.22369 18.8695 6.80331 18.7815 6.5225 18.5007L5.50289 17.4811C5.22211 17.2003 5.13406 16.78 5.27855 16.4101L5.83564 14.984C5.68436 14.6684 5.55564 14.3404 5.45164 14.0036L4.59774 13.6285C4.23453 13.4689 4 13.1097 4 12.7129V11.268C4 10.871 4.23487 10.5116 4.59849 10.3522L5.45818 9.97527C5.58545 9.56655 5.75127 9.17164 5.94836 8.8L5.54464 7.76552C5.40022 7.39546 5.48853 6.97501 5.76964 6.69433L6.79106 5.67443C7.07181 5.3941 7.49173 5.30625 7.8613 5.45053L8.94836 5.87491C9.29018 5.70473 9.65018 5.55927 10.024 5.44727L10.3929 4.60058C10.5518 4.23584 10.9118 4 11.3097 4H12.7533C13.1502 4 13.5095 4.23474 13.669 4.59821L14.0502 5.46691C14.4175 5.584 14.7738 5.73091 15.1105 5.90327L16.2168 5.47164C16.5866 5.32737 17.0067 5.41546 17.2874 5.69614L18.3071 6.71582C18.588 6.9967 18.676 7.4172 18.5313 7.78715L18.0996 8.89091C18.2742 9.23855 18.4255 9.59927 18.5418 9.97527L19.4015 10.3522C19.7651 10.5116 20 10.871 20 11.268V12.7129ZM16 12C16 14.2091 14.2091 16 12 16C9.79086 16 8 14.2091 8 12C8 9.79086 9.79086 8 12 8C14.2091 8 16 9.79086 16 12Z" fill="black"/>
</g>
</svg>
