<svg width="24" height="25" viewBox="0 0 24 25" fill="none" xmlns="http://www.w3.org/2000/svg">
<path fill-rule="evenodd" clip-rule="evenodd" d="M5.1709 4.5H18.6992C19.346 4.5 19.8737 5.01243 19.873 5.64458V19.2276C19.873 19.8598 19.346 20.3737 18.6985 20.3737H5.1709C4.52489 20.3737 4.00005 19.8598 4.00005 19.2276V5.64458C4.00005 5.01243 4.52489 4.5 5.1709 4.5ZM8.70755 18.0254H8.70828V10.4506H6.3527V18.0254H8.70755ZM7.53013 9.41554C6.77535 9.41554 6.16583 8.80384 6.16583 8.05052C6.16583 7.29647 6.77535 6.68404 7.53013 6.68404C8.28271 6.68404 8.89442 7.29574 8.89442 8.05052C8.89442 8.80384 8.28271 9.41554 7.53013 9.41554ZM15.1728 18.0254H17.5247V13.8705C17.5247 11.8302 17.086 10.2623 14.702 10.2623C13.5567 10.2623 12.7887 10.8908 12.4734 11.4857H12.442V10.4506H10.1835V18.0254H12.5362V14.2785C12.5362 13.2909 12.7245 12.3332 13.9494 12.3332C15.1575 12.3332 15.1728 13.4632 15.1728 14.3413V18.0254Z" fill="black"/>
</svg>
