<svg width="24" height="24" viewBox="0 0 24 24" fill="none" xmlns="http://www.w3.org/2000/svg">
<g id="social-linkedin">
<path id="linkedin" fill-rule="evenodd" clip-rule="evenodd" d="M5.1709 4H18.6992C19.346 4 19.8737 4.51243 19.873 5.14458V18.7276C19.873 19.3598 19.346 19.8737 18.6985 19.8737H5.1709C4.52489 19.8737 4.00005 19.3598 4.00005 18.7276V5.14458C4.00005 4.51243 4.52489 4 5.1709 4ZM8.70755 17.5254H8.70828V9.95062H6.3527V17.5254H8.70755ZM7.53013 8.91554C6.77535 8.91554 6.16583 8.30384 6.16583 7.55052C6.16583 6.79647 6.77535 6.18404 7.53013 6.18404C8.28271 6.18404 8.89442 6.79574 8.89442 7.55052C8.89442 8.30384 8.28271 8.91554 7.53013 8.91554ZM15.1728 17.5254H17.5247V13.3705C17.5247 11.3302 17.086 9.76229 14.702 9.76229C13.5567 9.76229 12.7887 10.3908 12.4734 10.9857H12.442V9.95062H10.1835V17.5254H12.5362V13.7785C12.5362 12.7909 12.7245 11.8332 13.9494 11.8332C15.1575 11.8332 15.1728 12.9632 15.1728 13.8413V17.5254Z" fill="black"/>
</g>
</svg>
