<svg width="24" height="25" viewBox="0 0 24 25" fill="none" xmlns="http://www.w3.org/2000/svg">
<path d="M12.0004 4.5C7.58276 4.5 4 8.08276 4 12.5011C4 16.0355 6.29273 19.0348 9.47235 20.0917C9.87182 20.1665 10.0177 19.9188 10.0177 19.7069C10.0177 19.5178 10.0111 19.0135 10.0067 18.3465C7.78066 18.8303 7.31156 17.2742 7.31156 17.2742C6.94727 16.3492 6.4232 16.1036 6.4232 16.1036C5.69609 15.606 6.47817 15.6162 6.47817 15.6162C7.28151 15.6734 7.70296 16.4423 7.70296 16.4423C8.41688 17.6641 9.5757 17.3116 10.0316 17.1063C10.1042 16.5889 10.3116 16.2363 10.5396 16.0362C8.76211 15.8354 6.89523 15.1479 6.89523 12.084C6.89523 11.2103 7.20674 10.4957 7.71836 9.93644C7.637 9.73414 7.3614 8.92054 7.79678 7.81815C7.79678 7.81815 8.46892 7.60266 9.99789 8.63908C10.6348 8.46097 11.3194 8.37228 12.0004 8.36935C12.6798 8.37228 13.3644 8.46097 14.0036 8.63908C15.5303 7.60266 16.201 7.81815 16.201 7.81815C16.6379 8.92054 16.3637 9.7334 16.2802 9.93644C16.7933 10.4957 17.1026 11.2096 17.1026 12.084C17.1026 15.1559 15.232 15.8324 13.4487 16.0303C13.7375 16.2774 13.9933 16.7655 13.9933 17.5117C13.9933 18.5811 13.983 19.4453 13.983 19.7069C13.983 19.921 14.126 20.1694 14.5328 20.0917C17.7095 19.0311 20 16.034 20 12.5011C20.0022 8.08276 16.4187 4.5 12.0004 4.5Z" fill="black"/>
</svg>
