<svg width="24" height="25" viewBox="0 0 24 25" fill="none" xmlns="http://www.w3.org/2000/svg">
<path d="M12.0007 4.5C7.58255 4.5 4 8.08109 4 12.5C4 15.7756 5.97018 18.5909 8.78909 19.828C8.76655 19.268 8.78545 18.5982 8.92727 17.9902C9.08145 17.3407 9.95709 13.6309 9.95709 13.6309C9.95709 13.6309 9.70109 13.1211 9.70109 12.3655C9.70109 11.1807 10.3891 10.2942 11.2451 10.2942C11.9716 10.2942 12.3229 10.8411 12.3229 11.4956C12.3229 12.2258 11.856 13.3211 11.6167 14.3335C11.416 15.1829 12.0422 15.8745 12.8778 15.8745C14.3942 15.8745 15.4145 13.9284 15.4145 11.6215C15.4145 9.86873 14.2342 8.556 12.0858 8.556C9.65964 8.556 8.14836 10.364 8.14836 12.3858C8.14836 13.0833 8.35345 13.5749 8.67564 13.9553C8.824 14.1298 8.84436 14.2011 8.78982 14.4011C8.75273 14.5487 8.66473 14.9022 8.62691 15.0433C8.57382 15.2462 8.41018 15.3189 8.22618 15.2433C7.10909 14.7873 6.58836 13.5625 6.58836 12.188C6.58836 9.91527 8.504 7.18945 12.3055 7.18945C15.3593 7.18945 17.3709 9.39964 17.3709 11.7735C17.3709 14.9109 15.6255 17.2549 13.0531 17.2549C12.1891 17.2549 11.376 16.7887 11.0989 16.2593C11.0989 16.2593 10.6335 18.1015 10.5367 18.4578C10.3665 19.0745 10.0349 19.6905 9.73091 20.1705C10.4524 20.3836 11.2124 20.5 12.0007 20.5C16.4182 20.5 20 16.9189 20 12.5C20 8.08109 16.4182 4.5 12.0007 4.5Z" fill="black"/>
</svg>
