<svg width="24" height="24" viewBox="0 0 24 24" fill="none" xmlns="http://www.w3.org/2000/svg">
<g id="social-dribbble">
<path id="dribbble" fill-rule="evenodd" clip-rule="evenodd" d="M11.9993 20C7.58836 20 4 16.4102 4 12C4 7.58909 7.58836 4 11.9993 4C16.4109 4 20 7.58909 20 12C20 16.4102 16.4109 20 11.9993 20ZM18.7462 13.0953C18.5127 13.0204 16.6313 12.4604 14.4895 12.8036C15.3833 15.2589 15.7469 17.2596 15.816 17.6756C17.3498 16.6385 18.4415 14.9964 18.7462 13.0953ZM13.2109 13.1185C14.1702 15.6116 14.5665 17.7011 14.6691 18.3004C13.8487 18.6509 12.9455 18.8436 12 18.8429C10.4204 18.8429 8.96364 18.304 7.80509 17.4007C7.92873 17.1491 9.312 14.4764 13.1658 13.1338L13.2109 13.1185ZM6.92291 16.5796C7.07782 16.3149 8.95345 13.2095 12.4778 12.0705C12.5665 12.0415 12.6567 12.0145 12.7469 11.9891C12.5753 11.6015 12.3884 11.2124 12.1927 10.8291C8.78036 11.8502 5.46909 11.808 5.17018 11.8022L5.16898 11.8552V11.8552V11.8552V11.8552C5.16776 11.9069 5.16655 11.9583 5.16655 12.0109C5.16655 13.7658 5.832 15.3673 6.92291 16.5796ZM11.6284 9.77818C8.43127 10.6269 5.616 10.6153 5.31055 10.6109C5.75345 8.49018 7.18255 6.728 9.09455 5.82618C9.27564 6.07345 10.496 7.76509 11.6284 9.77818ZM10.3978 5.36727C10.5869 5.61964 11.8284 7.31055 12.9476 9.36727C15.3782 8.45745 16.4065 7.07418 16.5302 6.89891C15.3236 5.82764 13.736 5.17673 12 5.17673C11.448 5.17673 10.912 5.24291 10.3978 5.36727ZM13.4735 10.3833C15.9993 9.352 17.1447 7.88436 17.2887 7.68945C18.2407 8.85236 18.8167 10.3331 18.832 11.9455C18.6058 11.8975 16.3469 11.4385 14.0735 11.7258C14.0326 11.6254 13.9906 11.5256 13.9485 11.4254C13.9412 11.4079 13.9339 11.3905 13.9265 11.3731C13.784 11.0393 13.632 10.7091 13.4735 10.3833Z" fill="black"/>
</g>
</svg>
