<svg width="24" height="24" viewBox="0 0 24 24" fill="none" xmlns="http://www.w3.org/2000/svg">
<g id="social-vimeo">
<path id="vimeo" d="M19.9922 8.19432C19.8533 11.1929 14.3776 18.809 11.2066 18.809C10.2743 18.809 9.48516 17.9486 8.84006 16.2264C7.60513 11.7005 7.05676 8.91142 6.0073 8.91142C5.88802 8.91142 5.46984 9.16306 4.75128 9.66489L4 8.69687C6.00148 6.93685 7.62259 5.28083 8.69606 5.18265C9.93971 5.06265 10.7048 5.91139 10.9899 7.72886C11.3601 10.0591 11.8917 13.8242 12.8197 13.8242C13.5376 13.8242 15.3107 10.9056 15.4038 9.84452C15.5623 8.33396 14.3209 8.24741 13.1427 8.73324C13.9325 6.17466 15.438 4.93028 17.6627 5.00301C19.3107 5.05101 20.0875 6.11575 19.9922 8.19432Z" fill="black"/>
</g>
</svg>
