<svg width="24" height="24" viewBox="0 0 24 24" fill="none" xmlns="http://www.w3.org/2000/svg">
<g id="social-pinterest">
<path id="pinterest" d="M12.0007 4C7.58255 4 4 7.58109 4 12C4 15.2756 5.97018 18.0909 8.78909 19.328C8.76655 18.768 8.78545 18.0982 8.92727 17.4902C9.08145 16.8407 9.95709 13.1309 9.95709 13.1309C9.95709 13.1309 9.70109 12.6211 9.70109 11.8655C9.70109 10.6807 10.3891 9.79418 11.2451 9.79418C11.9716 9.79418 12.3229 10.3411 12.3229 10.9956C12.3229 11.7258 11.856 12.8211 11.6167 13.8335C11.416 14.6829 12.0422 15.3745 12.8778 15.3745C14.3942 15.3745 15.4145 13.4284 15.4145 11.1215C15.4145 9.36873 14.2342 8.056 12.0858 8.056C9.65964 8.056 8.14836 9.864 8.14836 11.8858C8.14836 12.5833 8.35345 13.0749 8.67564 13.4553C8.824 13.6298 8.84436 13.7011 8.78982 13.9011C8.75273 14.0487 8.66473 14.4022 8.62691 14.5433C8.57382 14.7462 8.41018 14.8189 8.22618 14.7433C7.10909 14.2873 6.58836 13.0625 6.58836 11.688C6.58836 9.41527 8.504 6.68945 12.3055 6.68945C15.3593 6.68945 17.3709 8.89964 17.3709 11.2735C17.3709 14.4109 15.6255 16.7549 13.0531 16.7549C12.1891 16.7549 11.376 16.2887 11.0989 15.7593C11.0989 15.7593 10.6335 17.6015 10.5367 17.9578C10.3665 18.5745 10.0349 19.1905 9.73091 19.6705C10.4524 19.8836 11.2124 20 12.0007 20C16.4182 20 20 16.4189 20 12C20 7.58109 16.4182 4 12.0007 4Z" fill="black"/>
</g>
</svg>
