<svg width="24" height="25" viewBox="0 0 24 25" fill="none" xmlns="http://www.w3.org/2000/svg">
<path fill-rule="evenodd" clip-rule="evenodd" d="M4 20.586L4.01922 20.511C4.10063 20.1932 4.17248 19.9127 4.24872 19.6341C4.31851 19.3791 4.38875 19.1244 4.45897 18.8698L4.45898 18.8697C4.6551 18.1586 4.85103 17.4482 5.03631 16.7339C5.0734 16.5906 5.05668 16.3986 4.98977 16.2692C2.53462 11.5901 5.06613 5.9293 10.2179 4.71918C14.8933 3.62323 19.0982 6.78017 19.8669 11.0025C20.6661 15.4052 17.7855 19.5875 13.4163 20.3526C11.6796 20.6529 10.0201 20.3984 8.43469 19.6275C8.29288 19.557 8.09362 19.5388 7.94381 19.5766C6.8791 19.8424 5.99406 20.0752 5.32344 20.2515L5.32341 20.2515C4.66383 20.425 4.21167 20.5438 4 20.586ZM5.85882 18.7534C6.06491 18.6996 6.26684 18.6474 6.46556 18.596L6.46563 18.596C7.03262 18.4494 7.57347 18.3095 8.11034 18.1592C8.31397 18.1033 8.47323 18.1323 8.6565 18.2349C10.0288 19.0298 11.4993 19.325 13.0716 19.0712C16.6925 18.4916 19.1731 15.1034 18.6204 11.4956C18.0437 7.75467 14.5391 5.24643 10.8338 5.92639C6.35334 6.74963 3.97309 11.745 6.20353 15.7019C6.44933 16.1404 6.51769 16.5026 6.35043 16.9695C6.21344 17.3587 6.11229 17.7603 6.0057 18.1834C5.95895 18.369 5.91115 18.5587 5.85882 18.7534ZM8.3656 12.0679C10.0652 15.019 12.5465 16.2488 14.1042 16.3048C14.8584 16.3608 16.1034 15.8714 16.0503 14.5122C16.0434 14.3558 15.95 14.3113 14.8989 13.8109C14.7276 13.7294 14.5309 13.6357 14.3049 13.5275C14.0363 13.4004 13.9414 13.5213 13.5865 13.9732C13.4985 14.0853 13.3945 14.2177 13.2679 14.3718C13.1566 14.51 13.0243 14.5543 12.8483 14.4852C11.6462 14.0162 10.732 13.214 10.0797 12.1079C9.98007 11.9385 10.0048 11.801 10.1321 11.6556C10.5379 11.1901 10.7291 10.9305 10.6244 10.6505C10.4273 10.1233 10.2048 9.60767 9.97789 9.09206C9.93498 8.99606 9.8448 8.86298 9.75826 8.85061C9.75247 8.84963 9.74667 8.84864 9.74086 8.84766C9.39469 8.78879 9.02826 8.72649 8.73359 9.00042C7.84999 9.8222 7.762 11.0185 8.3656 12.0679Z" fill="black"/>
</svg>
