<svg width="24" height="24" viewBox="0 0 24 24" fill="none" xmlns="http://www.w3.org/2000/svg">
<g id="social-whatsapp">
<path id="whatsapp" fill-rule="evenodd" clip-rule="evenodd" d="M4 20.086L4.01922 20.011C4.10063 19.6932 4.17248 19.4127 4.24872 19.1341C4.31851 18.8791 4.38875 18.6244 4.45897 18.3698L4.45898 18.3697C4.6551 17.6586 4.85103 16.9482 5.03631 16.2339C5.0734 16.0906 5.05668 15.8986 4.98977 15.7692C2.53462 11.0901 5.06613 5.4293 10.2179 4.21918C14.8933 3.12323 19.0982 6.28017 19.8669 10.5025C20.6661 14.9052 17.7855 19.0875 13.4163 19.8526C11.6796 20.1529 10.0201 19.8984 8.43469 19.1275C8.29288 19.057 8.09362 19.0388 7.94381 19.0766C6.8791 19.3424 5.99406 19.5752 5.32344 19.7515L5.32341 19.7515C4.66383 19.925 4.21167 20.0438 4 20.086ZM5.85882 18.2534C6.06491 18.1996 6.26684 18.1474 6.46556 18.096L6.46563 18.096C7.03262 17.9494 7.57347 17.8095 8.11034 17.6592C8.31397 17.6033 8.47323 17.6323 8.6565 17.7349C10.0288 18.5298 11.4993 18.825 13.0716 18.5712C16.6925 17.9916 19.1731 14.6034 18.6204 10.9956C18.0437 7.25467 14.5391 4.74643 10.8338 5.42639C6.35334 6.24963 3.97309 11.245 6.20353 15.2019C6.44933 15.6404 6.51769 16.0026 6.35043 16.4695C6.21344 16.8587 6.11229 17.2603 6.0057 17.6834C5.95895 17.869 5.91115 18.0587 5.85882 18.2534ZM8.3656 11.5679C10.0652 14.519 12.5465 15.7488 14.1042 15.8048C14.8584 15.8608 16.1034 15.3714 16.0503 14.0122C16.0434 13.8558 15.95 13.8113 14.8989 13.3109C14.7276 13.2294 14.5309 13.1357 14.3049 13.0275C14.0363 12.9004 13.9414 13.0213 13.5865 13.4732C13.4985 13.5853 13.3945 13.7177 13.2679 13.8718C13.1566 14.01 13.0243 14.0543 12.8483 13.9852C11.6462 13.5162 10.732 12.714 10.0797 11.6079C9.98007 11.4385 10.0048 11.301 10.1321 11.1556C10.5379 10.6901 10.7291 10.4305 10.6244 10.1505C10.4273 9.62328 10.2048 9.10767 9.97789 8.59206C9.93498 8.49606 9.8448 8.36298 9.75826 8.35061C9.75247 8.34963 9.74667 8.34864 9.74086 8.34766C9.39469 8.28879 9.02826 8.22649 8.73359 8.50042C7.84999 9.3222 7.762 10.5185 8.3656 11.5679Z" fill="black"/>
</g>
</svg>
