<svg width="24" height="24" viewBox="0 0 24 24" fill="none" xmlns="http://www.w3.org/2000/svg">
<g id="social-instagram">
<path id="instagram" fill-rule="evenodd" clip-rule="evenodd" d="M19.8701 8.01136C19.761 6.95964 19.3587 6.02793 18.5754 5.28097C17.7535 4.49545 16.7455 4.14852 15.6414 4.09033C13.762 3.98778 9.29544 3.92305 7.72805 4.17834C5.93664 4.47 4.76346 5.51662 4.26669 7.28621C3.88703 8.64777 3.95976 14.9217 4.18451 16.2665C4.4878 18.1074 5.57443 19.2864 7.39784 19.7577C8.65975 20.0828 14.8631 20.0399 16.2552 19.8159C18.0961 19.517 19.2816 18.4361 19.7602 16.6164C20.1261 15.2192 19.9973 9.27327 19.8701 8.01136ZM18.3965 16.0069C18.1834 17.4048 17.2553 18.2689 15.8516 18.4245C14.5606 18.5656 8.79504 18.6434 7.60004 18.3081C6.45449 17.9888 5.79845 17.2019 5.60861 16.0476C5.42678 14.9486 5.38241 9.44565 5.6057 7.97499C5.81736 6.58798 6.74397 5.72464 8.14117 5.56753C9.55946 5.40898 14.6595 5.39079 16.0174 5.60026C17.4131 5.8141 18.2758 6.7429 18.4278 8.14955C18.5732 9.4631 18.614 14.5959 18.3965 16.0069ZM7.8997 11.9993C7.89679 9.72858 9.73402 7.8928 11.9996 7.8928C14.2696 7.89426 16.104 9.7293 16.1025 11.9993C16.101 14.2693 14.2609 16.1021 11.9909 16.0971C9.73183 16.0934 7.8997 14.2584 7.8997 11.9993ZM11.9727 14.6482C10.5253 14.6453 9.34926 13.451 9.34926 11.9855C9.34926 10.5221 10.5363 9.34237 12.012 9.34237C13.4747 9.34309 14.6558 10.5315 14.6558 12.0044C14.6537 13.4765 13.4623 14.6504 11.9727 14.6482ZM16.2611 8.69504C16.7942 8.69504 17.2204 8.27174 17.2219 7.74006C17.2233 7.2062 16.8015 6.77781 16.2705 6.77563C15.7287 6.76981 15.2973 7.20039 15.301 7.74006C15.3053 8.27465 15.7257 8.69504 16.2611 8.69504Z" fill="black"/>
</g>
</svg>
