<svg width="24" height="25" viewBox="0 0 24 25" fill="none" xmlns="http://www.w3.org/2000/svg">
<path fill-rule="evenodd" clip-rule="evenodd" d="M11.9993 20.5C7.58836 20.5 4 16.9102 4 12.5C4 8.08909 7.58836 4.5 11.9993 4.5C16.4109 4.5 20 8.08909 20 12.5C20 16.9102 16.4109 20.5 11.9993 20.5ZM18.7462 13.5953C18.5127 13.5204 16.6313 12.9604 14.4895 13.3036C15.3833 15.7589 15.7469 17.7596 15.816 18.1756C17.3498 17.1385 18.4415 15.4964 18.7462 13.5953ZM13.2109 13.6185C14.1702 16.1116 14.5665 18.2011 14.6691 18.8004C13.8487 19.1509 12.9455 19.3436 12 19.3429C10.4204 19.3429 8.96364 18.804 7.80509 17.9007C7.92873 17.6491 9.312 14.9764 13.1658 13.6338L13.2109 13.6185ZM6.92291 17.0796C7.07782 16.8149 8.95345 13.7095 12.4778 12.5705C12.5665 12.5415 12.6567 12.5145 12.7469 12.4891C12.5753 12.1015 12.3884 11.7124 12.1927 11.3291C8.78036 12.3502 5.46909 12.308 5.17018 12.3022L5.16898 12.3552V12.3552V12.3552V12.3552C5.16776 12.4069 5.16655 12.4583 5.16655 12.5109C5.16655 14.2658 5.832 15.8673 6.92291 17.0796ZM11.6284 10.2782C8.43127 11.1269 5.616 11.1153 5.31055 11.1109C5.75345 8.99018 7.18255 7.228 9.09455 6.32618C9.27564 6.57345 10.496 8.26509 11.6284 10.2782ZM10.3978 5.86727C10.5869 6.11964 11.8284 7.81055 12.9476 9.86727C15.3782 8.95745 16.4065 7.57418 16.5302 7.39891C15.3236 6.32764 13.736 5.67673 12 5.67673C11.448 5.67673 10.912 5.74291 10.3978 5.86727ZM13.4735 10.8833C15.9993 9.852 17.1447 8.38436 17.2887 8.18945C18.2407 9.35236 18.8167 10.8331 18.832 12.4455C18.6058 12.3975 16.3469 11.9385 14.0735 12.2258C14.0326 12.1254 13.9906 12.0256 13.9485 11.9254C13.9412 11.9079 13.9339 11.8905 13.9265 11.8731C13.784 11.5393 13.632 11.2091 13.4735 10.8833Z" fill="black"/>
</svg>
