<svg width="24" height="25" viewBox="0 0 24 25" fill="none" xmlns="http://www.w3.org/2000/svg">
<path d="M19.9922 8.69432C19.8533 11.6929 14.3776 19.309 11.2066 19.309C10.2743 19.309 9.48516 18.4486 8.84006 16.7264C7.60513 12.2005 7.05676 9.41142 6.0073 9.41142C5.88802 9.41142 5.46984 9.66306 4.75128 10.1649L4 9.19687C6.00148 7.43685 7.62259 5.78083 8.69606 5.68265C9.93971 5.56265 10.7048 6.41139 10.9899 8.22886C11.3601 10.5591 11.8917 14.3242 12.8197 14.3242C13.5376 14.3242 15.3107 11.4056 15.4038 10.3445C15.5623 8.83396 14.3209 8.74741 13.1427 9.23324C13.9325 6.67466 15.438 5.43028 17.6627 5.50301C19.3107 5.55101 20.0875 6.61575 19.9922 8.69432" fill="black"/>
</svg>
