<svg width="24" height="25" viewBox="0 0 24 25" fill="none" xmlns="http://www.w3.org/2000/svg">
<path d="M20 7.03891C19.4109 7.3 18.7782 7.47673 18.1149 7.556C18.7927 7.14945 19.3127 6.50727 19.5578 5.74C18.9244 6.11673 18.2218 6.39018 17.4742 6.53709C16.8749 5.89855 16.0211 5.5 15.0771 5.5C13.2647 5.5 11.7942 6.96982 11.7942 8.78291C11.7942 9.04036 11.8233 9.29055 11.8785 9.53055C9.15055 9.39382 6.73236 8.08764 5.11273 6.10073C4.83055 6.58582 4.66909 7.14945 4.66909 7.75164C4.66909 8.88982 5.24873 9.89564 6.12873 10.484C5.59127 10.468 5.08436 10.3182 4.64218 10.0731V10.1145C4.64218 11.7058 5.77382 13.0324 7.27491 13.3342C7 13.4091 6.70909 13.4498 6.41091 13.4498C6.19927 13.4498 5.99345 13.4287 5.79273 13.3902C6.21018 14.6942 7.42182 15.6433 8.85891 15.6702C7.736 16.5502 6.32145 17.076 4.78255 17.076C4.51782 17.076 4.25673 17.06 4 17.0302C5.45236 17.9604 7.17818 18.5044 9.03273 18.5044C15.0705 18.5044 18.3716 13.5029 18.3716 9.16473C18.3716 9.02291 18.3687 8.88109 18.3629 8.73927C19.0029 8.27527 19.5593 7.69709 20 7.03891Z" fill="black"/>
</svg>
