<svg width="24" height="24" viewBox="0 0 24 24" fill="none" xmlns="http://www.w3.org/2000/svg">
<path fill-rule="evenodd" clip-rule="evenodd" d="M5.64795 16.8856C5.04212 16.6878 4.63557 16.2914 4.41811 15.6929C3.88573 14.2296 3.72937 8.11235 4.75193 6.90797C5.10321 6.4956 5.55486 6.25486 6.09087 6.19741C8.84874 5.90068 17.3762 5.94213 18.3587 6.29705C18.9347 6.5036 19.3435 6.88033 19.5653 7.45707C20.1471 8.96764 20.1675 14.4696 19.4889 15.9249C19.3035 16.3198 19.0038 16.5998 18.6235 16.7983C17.5951 17.338 7.0007 17.3314 5.64795 16.8856ZM10.0306 14.0179C11.6888 13.1568 13.3339 12.3044 15.0001 11.4411C13.3317 10.5713 11.6873 9.71238 10.0306 8.84837V14.0179Z" fill="black"/>
</svg>
