<?xml version="1.0" encoding="utf-8"?>
<!-- Generator: Adobe Illustrator 15.1.0, SVG Export Plug-In . SVG Version: 6.00 Build 0)  -->
<!DOCTYPE svg PUBLIC "-//W3C//DTD SVG 1.1//EN" "http://www.w3.org/Graphics/SVG/1.1/DTD/svg11.dtd">
<svg version="1.1" id="icons" xmlns="http://www.w3.org/2000/svg" xmlns:xlink="http://www.w3.org/1999/xlink" x="0px" y="0px"
	 width="32px" height="32px" viewBox="0 0 32 32" enable-background="new 0 0 32 32" xml:space="preserve">
<path fill-rule="evenodd" clip-rule="evenodd" d="M15.999,5.354c-6.027,0-10.915,4.888-10.915,10.916
	c0,4.822,3.128,8.914,7.466,10.356c0.545,0.102,0.744-0.236,0.744-0.525c0-0.258-0.009-0.946-0.015-1.856
	c-3.037,0.66-3.677-1.463-3.677-1.463c-0.497-1.262-1.212-1.597-1.212-1.597c-0.992-0.679,0.075-0.665,0.075-0.665
	c1.096,0.078,1.671,1.127,1.671,1.127c0.974,1.667,2.555,1.186,3.177,0.906c0.099-0.706,0.382-1.187,0.693-1.46
	c-2.425-0.274-4.972-1.212-4.972-5.392c0-1.192,0.425-2.167,1.123-2.93c-0.111-0.276-0.487-1.386,0.107-2.89
	c0,0,0.917-0.294,3.003,1.12c0.869-0.243,1.803-0.364,2.732-0.368c0.927,0.004,1.861,0.125,2.733,0.368
	c2.083-1.414,2.998-1.12,2.998-1.12c0.596,1.504,0.222,2.613,0.108,2.89c0.7,0.763,1.122,1.737,1.122,2.93
	c0,4.191-2.552,5.114-4.985,5.384c0.394,0.337,0.743,1.003,0.743,2.021c0,1.459-0.014,2.638-0.014,2.995
	c0,0.292,0.195,0.631,0.75,0.525c4.334-1.447,7.459-5.536,7.459-10.356C26.916,10.242,22.027,5.354,15.999,5.354z"/>
</svg>
