<svg width="24" height="24" viewBox="0 0 24 24" fill="none" xmlns="http://www.w3.org/2000/svg">
<g id="social-github">
<path id="github" d="M12.0004 4C7.58276 4 4 7.58276 4 12.0011C4 15.5355 6.29273 18.5348 9.47235 19.5917C9.87182 19.6665 10.0177 19.4188 10.0177 19.2069C10.0177 19.0178 10.0111 18.5135 10.0067 17.8465C7.78066 18.3303 7.31156 16.7742 7.31156 16.7742C6.94727 15.8492 6.4232 15.6036 6.4232 15.6036C5.69609 15.106 6.47817 15.1162 6.47817 15.1162C7.28151 15.1734 7.70296 15.9423 7.70296 15.9423C8.41688 17.1641 9.5757 16.8116 10.0316 16.6063C10.1042 16.0889 10.3116 15.7363 10.5396 15.5362C8.7621 15.3354 6.89523 14.6479 6.89523 11.584C6.89523 10.7103 7.20674 9.99569 7.71836 9.43644C7.637 9.23414 7.3614 8.42054 7.79678 7.31815C7.79678 7.31815 8.46892 7.10266 9.99789 8.13908C10.6348 7.96097 11.3194 7.87228 12.0004 7.86935C12.6798 7.87228 13.3644 7.96097 14.0036 8.13908C15.5303 7.10266 16.201 7.31815 16.201 7.31815C16.6379 8.42054 16.3637 9.23341 16.2802 9.43644C16.7933 9.99569 17.1026 10.7096 17.1026 11.584C17.1026 14.6559 15.232 15.3324 13.4487 15.5303C13.7375 15.7774 13.9933 16.2655 13.9933 17.0117C13.9933 18.0811 13.983 18.9453 13.983 19.2069C13.983 19.421 14.126 19.6694 14.5328 19.5917C17.7095 18.5311 20 15.534 20 12.0011C20.0022 7.58276 16.4187 4 12.0004 4Z" fill="black"/>
</g>
</svg>
