<?xml version="1.0" encoding="utf-8"?>
<!-- Generator: Adobe Illustrator 15.1.0, SVG Export Plug-In . SVG Version: 6.00 Build 0)  -->
<!DOCTYPE svg PUBLIC "-//W3C//DTD SVG 1.1//EN" "http://www.w3.org/Graphics/SVG/1.1/DTD/svg11.dtd">
<svg version="1.1" id="icons" xmlns="http://www.w3.org/2000/svg" xmlns:xlink="http://www.w3.org/1999/xlink" x="0px" y="0px"
	 width="32px" height="32px" viewBox="0 0 32 32" enable-background="new 0 0 32 32" xml:space="preserve">
<path id="linkedin" d="M25.264,5.127H6.731c-0.885,0-1.604,0.702-1.604,1.568v18.608c0,0.866,0.719,1.57,1.604,1.57h18.532
	c0.887,0,1.609-0.704,1.609-1.57V6.695C26.873,5.829,26.15,5.127,25.264,5.127z M11.576,23.656H8.35V13.279h3.227V23.656z
	 M9.963,11.861c-1.034,0-1.869-0.838-1.869-1.87c0-1.033,0.835-1.872,1.869-1.872c1.031,0,1.869,0.838,1.869,1.872
	C11.832,11.023,10.994,11.861,9.963,11.861z M23.656,23.656h-3.223v-5.047c0-1.203-0.021-2.751-1.676-2.751
	c-1.678,0-1.936,1.312-1.936,2.665v5.133h-3.223V13.279h3.094v1.418h0.043c0.432-0.815,1.484-1.676,3.053-1.676
	c3.266,0,3.867,2.148,3.867,4.943V23.656z"/>
</svg>
