<svg width="24" height="24" viewBox="0 0 24 24" fill="none" xmlns="http://www.w3.org/2000/svg">
<path fill-rule="evenodd" clip-rule="evenodd" d="M19.0706 14.7736C19.2798 14.233 18.9242 13.6637 18.3601 13.53C17.7961 13.3964 17.2393 13.7516 17.0027 14.2808C16.6233 15.1295 16.0356 15.8755 15.2873 16.4455C14.2588 17.229 12.9905 17.6316 11.6984 17.5847C10.4064 17.5379 9.17052 17.0445 8.20147 16.1886C7.23241 15.3327 6.59011 14.1673 6.38399 12.8909C6.17787 11.6146 6.42069 10.3062 7.07107 9.1888C7.72146 8.07139 8.73917 7.21406 9.9508 6.7629C11.1624 6.31173 12.493 6.29464 13.7158 6.71453C14.6055 7.02004 15.3981 7.54312 16.0254 8.22924C16.1079 8.3194 16.2013 8.39774 16.3022 8.4624L14.2525 10.1968L19.7866 11.2153L19.6982 5.58887L17.8598 7.14444C17.8512 7.13302 17.8423 7.12171 17.8331 7.11053C16.9342 6.0199 15.7471 5.19261 14.3976 4.72921C12.7154 4.1516 10.8851 4.17511 9.21831 4.79574C7.55156 5.41638 6.15158 6.59573 5.2569 8.13286C4.36221 9.66999 4.02819 11.4698 4.31173 13.2256C4.59527 14.9814 5.47884 16.5845 6.81189 17.7619C8.14494 18.9393 9.84498 19.618 11.6224 19.6825C13.3997 19.7469 15.1445 19.1931 16.5593 18.1153C17.6943 17.2507 18.5607 16.0918 19.0706 14.7736Z" fill="black"/>
</svg>
