<svg xmlns="http://www.w3.org/2000/svg" width="24" height="24" viewBox="0 0 24 24">
  <path d="M5.6,7.2 L4,7.2 L4,18.3995789 C4,19.2795789 4.72126316,20 5.60042105,20 L16.8004211,20 L16.8004211,18.3995789 L5.60042105,18.3995789 L5.60042105,7.2 L5.6,7.2 Z M18.3995789,4 L8.80042105,4 C7.91957895,4 7.19957895,4.71915789 7.19957895,5.6 L7.19957895,15.1995789 C7.19957895,16.0795789 7.91957895,16.7991579 8.80042105,16.7991579 L18.3995789,16.7991579 C19.2787368,16.7991579 20,16.0795789 20,15.1995789 L20,5.6 C20,4.71957895 19.2787368,4 18.3995789,4 Z M17.5991579,11.1995789 L14.3991579,11.1995789 L14.3991579,14.3995789 L12.7995789,14.3995789 L12.7995789,11.1995789 L9.59957895,11.1995789 L9.59957895,9.59957895 L12.7995789,9.59957895 L12.7995789,6.39957895 L14.3991579,6.39957895 L14.3991579,9.59957895 L17.5991579,9.59957895 L17.5991579,11.1995789 Z"/>
</svg>
