<svg width="24" height="24" viewBox="0 0 24 24" fill="none" xmlns="http://www.w3.org/2000/svg">
<g id="home">
<path id="home_2" fill-rule="evenodd" clip-rule="evenodd" d="M3.54377 11.633C3.91922 11.9566 4.47511 11.9564 4.85028 11.6324L11.9504 5.50105L19.2471 11.8003C19.6224 12.1243 20.1786 12.1243 20.554 11.8003L21 11.4153L12.604 4.16559C12.2286 3.84143 11.6723 3.84144 11.2969 4.16561L3.09619 11.2471L3.54377 11.633ZM12.7527 9.19526L15.0968 11.2304L17.7516 13.5341C17.9705 13.724 18.0962 13.9995 18.0962 14.2893V19C18.0962 19.5523 17.6485 20 17.0962 20H14.3291V15.0042C14.3291 14.4519 13.8814 14.0042 13.3291 14.0042H10.8633C10.311 14.0042 9.86326 14.4519 9.86326 15.0042V20H7.09619C6.5439 20 6.09619 19.5523 6.09619 19V14.2893C6.09619 13.9995 6.22191 13.724 6.4408 13.5341L9.09561 11.2304L11.4418 9.19501C11.8179 8.86874 12.3767 8.86884 12.7527 9.19526Z" fill="black"/>
</g>
</svg>
