<svg xmlns="http://www.w3.org/2000/svg" width="24" height="24" viewBox="0 0 24 24">
  <path d="M15.096761,11.2303787 L17.7515784,13.5340577 C17.9704641,13.7239926 18.096187,13.9995435 18.096187,14.2893472 L18.096187,19 C18.096187,19.5522847 17.6484718,20 17.096187,20 L14.32911,20 L14.32911,15.0042182 C14.32911,14.4519334 13.8813948,14.0042182 13.32911,14.0042182 L10.863264,14.0042182 C10.3109792,14.0042182 9.86326399,14.4519334 9.86326399,15.0042182 L9.86326399,20 L7.09618701,20 C6.54390226,20 6.09618701,19.5522847 6.09618701,19 L6.09618701,14.2893472 C6.09618701,13.9995435 6.22190993,13.7239926 6.44079562,13.5340577 L9.09561299,11.2303787 L11.4417816,9.19500803 C11.8178753,8.86873561 12.3767029,8.86884145 12.752673,9.19525631 L15.096761,11.2303787 Z M3.54377285,11.6329531 L3.09618701,11.2471173 L11.2968868,4.16561204 C11.6722924,3.8414401 12.2285882,3.84143089 12.6040045,4.1655904 L21,11.415253 L20.5540206,11.8002731 C20.1786368,12.124347 19.6224486,12.124348 19.2470636,11.8002755 L11.9504363,5.50104526 L4.85028136,11.6323865 C4.4751116,11.9563645 3.91922344,11.9566055 3.54377285,11.6329531 Z"/>
</svg>
