<svg xmlns="http://www.w3.org/2000/svg" width="24" height="24" viewBox="0 0 24 24">
  <path d="M17.3896774,10.9816767 C17.3896774,8.4413456 16.056129,6.3498063 13.7287097,5.79093345 L13.7287097,5.2320606 C13.7287097,4.55161232 13.1823526,4 12.5083871,4 C11.8344215,4 11.2880645,4.55161232 11.2880645,5.2320606 L11.2880645,5.79093345 C8.95225806,6.3498063 7.62709677,8.45404725 7.62709677,10.9816767 L7.62709677,15.0885454 L6,16.7312929 L6,17.5526666 L19,17.5526666 L19,16.7312929 L17.3896774,15.0885454 L17.3896774,10.9816767 Z M12.5083871,19.9998522 C12.6183533,20.0014501 12.7281284,19.9900829 12.8354839,19.9659812 C13.594995,19.8150271 14.1398038,19.1385913 14.1312903,18.3571048 L10.8729032,18.3571048 C10.8797984,19.2647716 11.6093442,19.9975575 12.5083871,19.9998522 Z"/>
</svg>
