<svg xmlns="http://www.w3.org/2000/svg" width="24" height="24" viewBox="0 0 24 24">
  <path d="M17.6,8.16666667 L6.4,8.16666667 C5.072,8.16666667 4,9.28333333 4,10.6666667 L4,15.6666667 L7.2,15.6666667 L7.2,19 L16.8,19 L16.8,15.6666667 L20,15.6666667 L20,10.6666667 C20,9.28333333 18.928,8.16666667 17.6,8.16666667 Z M15.2,17.3333333 L8.8,17.3333333 L8.8,13.1666667 L15.2,13.1666667 L15.2,17.3333333 Z M17.6,11.5 C17.16,11.5 16.8,11.125 16.8,10.6666667 C16.8,10.2083333 17.16,9.83333333 17.6,9.83333333 C18.04,9.83333333 18.4,10.2083333 18.4,10.6666667 C18.4,11.125 18.04,11.5 17.6,11.5 Z M16.8,4 L7.2,4 L7.2,7.33333333 L16.8,7.33333333 L16.8,4 Z"/>
</svg>
