<svg width="24" height="24" viewBox="0 0 24 24" fill="none" xmlns="http://www.w3.org/2000/svg">
<g id="search">
<path id="search_2" fill-rule="evenodd" clip-rule="evenodd" d="M15.5373 13.1679C15.5373 13.1679 19.303 16.5322 19.9452 17.5751C20.3365 18.2122 18.5278 19.9569 17.8245 19.6972C16.6311 19.2558 13.4784 15.3489 13.4784 15.3489C12.5213 15.9649 11.3832 16.3256 10.1614 16.3256C6.7585 16.3256 4 13.5671 4 10.1643C4 6.7585 6.75778 4 10.1606 4C13.5635 4 16.322 6.7585 16.322 10.1635C16.322 11.2537 16.0362 12.2777 15.5373 13.1679ZM10.1614 5.99997C7.86321 6.00506 6.00433 7.86394 5.99997 10.1643C6.00433 12.4617 7.86321 14.3206 10.1614 14.3257C12.4624 14.3206 14.3213 12.4624 14.3257 10.1643C14.3213 7.86321 12.4617 6.00433 10.1614 5.99997Z" fill="black"/>
</g>
</svg>
