<svg xmlns="http://www.w3.org/2000/svg" width="24" height="24" viewBox="0 0 24 24">
  <path d="M12.000366,4 C7.58275666,4 4,7.58275666 4,12.0010989 C4,15.5354796 6.29272971,18.5347922 9.47235295,19.5917348 C9.87182152,19.6664977 10.0176825,19.4187539 10.0176825,19.2069256 C10.0176825,19.0178194 10.0110858,18.5135361 10.006688,17.8465336 C7.78065852,18.3302937 7.31155781,16.7741987 7.31155781,16.7741987 C6.94727179,15.8491907 6.42319834,15.6036458 6.42319834,15.6036458 C5.69609225,15.1059593 6.47817108,15.1162208 6.47817108,15.1162208 C7.28150605,15.1733925 7.70296371,15.9422779 7.70296371,15.9422779 C8.41687635,17.1641386 9.5757017,16.8115801 10.0316089,16.6063486 C10.104173,16.0888718 10.3116034,15.7363133 10.5395571,15.5362126 C8.76210516,15.3353788 6.89523093,14.6478531 6.89523093,11.5840391 C6.89523093,10.710339 7.20674312,9.99569342 7.71835608,9.43643742 C7.63699643,9.23413774 7.36139976,8.4205412 7.79678385,7.31815454 C7.79678385,7.31815454 8.46891721,7.1026614 9.99789233,8.13908078 C10.6348431,7.9609691 11.319437,7.87227975 12.000366,7.86934787 C12.679829,7.87227975 13.3644229,7.9609691 14.0035726,8.13908078 C15.5303488,7.1026614 16.2010162,7.31815454 16.2010162,7.31815454 C16.6378663,8.4205412 16.3637355,9.23340477 16.280177,9.43643742 C16.7932559,9.99569342 17.1025691,10.7096061 17.1025691,11.5840391 C17.1025691,14.6559158 15.2320301,15.3324469 13.4487144,15.5303488 C13.7375045,15.7773596 13.993311,16.2655176 13.993311,17.0116809 C13.993311,18.0810839 13.9830494,18.9452554 13.9830494,19.2069256 C13.9830494,19.4209528 14.1259786,19.6694296 14.5327768,19.5917348 C17.7094682,18.5311274 19.999999,15.5340137 19.999999,12.0010989 C20.0021979,7.58275666 16.4187083,4 12.000366,4 Z"/>
</svg>
