<svg xmlns="http://www.w3.org/2000/svg" width="24" height="24" viewBox="0 0 24 24">
  <path d="M19.9921928,8.1943232 C19.8532821,11.1929048 14.3775797,18.8089966 11.2066323,18.8089966 C10.2742575,18.8089966 9.48515705,17.9486226 8.84005836,16.22642 C7.60513438,11.7005473 7.05676413,8.91142276 6.00729693,8.91142276 C5.88802276,8.91142276 5.4698359,9.16306215 4.75128179,9.66488639 L4,8.69687472 C6.00147868,6.93685349 7.62258913,5.28083353 8.69605662,5.18265052 C9.93970798,5.06264908 10.7048081,5.91138658 10.9899025,7.72886304 C11.3600887,10.059073 11.8917315,13.8242093 12.8197427,13.8242093 C13.5375695,13.8242093 15.3106818,10.9056286 15.4037739,9.84452492 C15.5623212,8.33396125 14.3208517,8.24741475 13.1426557,8.73323879 C13.9324834,6.17466249 15.4379561,4.93028384 17.6627102,5.00301199 C19.3107301,5.05101257 20.0874667,6.11575268 19.9921928,8.1943232"/>
</svg>
