<svg xmlns="http://www.w3.org/2000/svg" width="24" height="24" viewBox="0 0 24 24">
  <path d="M11.9992727,20 C7.58836364,20 4,16.4101818 4,12 C4,7.58909091 7.58836364,4 11.9992727,4 C16.4109091,4 20,7.58909091 20,12 C20,16.4101818 16.4109091,20 11.9992727,20 Z M18.7461818,13.0952727 C18.5127273,13.0203636 16.6312727,12.4603636 14.4894545,12.8036364 C15.3832727,15.2589091 15.7469091,17.2596364 15.816,17.6756364 C17.3498182,16.6385455 18.4414545,14.9963636 18.7461818,13.0952727 Z M14.6690909,18.3003636 C14.5665455,17.7010909 14.1701818,15.6116364 13.2109091,13.1185455 L13.1658182,13.1338182 C9.312,14.4763636 7.92872727,17.1490909 7.80509091,17.4007273 C8.96363636,18.304 10.4203636,18.8429091 12,18.8429091 C12.9454545,18.8436364 13.8487273,18.6509091 14.6690909,18.3003636 Z M6.92290909,16.5796364 C7.07781818,16.3149091 8.95345455,13.2094545 12.4778182,12.0705455 C12.5665455,12.0414545 12.6567273,12.0145455 12.7469091,11.9890909 C12.5752727,11.6014545 12.3883636,11.2123636 12.1927273,10.8290909 C8.78036364,11.8501818 5.46909091,11.808 5.17018182,11.8021818 C5.16872727,11.872 5.16654545,11.9403636 5.16654545,12.0109091 C5.16654545,13.7658182 5.832,15.3672727 6.92290909,16.5796364 Z M5.31054545,10.6109091 C5.616,10.6152727 8.43127273,10.6269091 11.6283636,9.77818182 C10.496,7.76509091 9.27563636,6.07345455 9.09454545,5.82618182 C7.18254545,6.728 5.75345455,8.49018182 5.31054545,10.6109091 Z M10.3978182,5.36727273 C10.5869091,5.61963636 11.8283636,7.31054545 12.9476364,9.36727273 C15.3781818,8.45745455 16.4065455,7.07418182 16.5301818,6.89890909 C15.3236364,5.82763636 13.736,5.17672727 12,5.17672727 C11.448,5.17672727 10.912,5.24290909 10.3978182,5.36727273 Z M17.2887273,7.68945455 C17.1447273,7.88436364 15.9992727,9.352 13.4734545,10.3832727 C13.632,10.7090909 13.784,11.0392727 13.9265455,11.3730909 C13.976,11.4909091 14.0254545,11.608 14.0734545,11.7258182 C16.3469091,11.4385455 18.6058182,11.8974545 18.832,11.9454545 C18.8167273,10.3330909 18.2407273,8.85236364 17.2887273,7.68945455 Z"/>
</svg>
