<svg xmlns="http://www.w3.org/2000/svg" width="24" height="24" viewBox="0 0 24 24">
  <path fill-rule="evenodd" d="M4,20.0860376 C4.08945015,19.7369638 4.16653727,19.4344332 4.24871505,19.1340843 C4.51342932,18.1668591 4.78468872,17.2039973 5.03631272,16.2338632 C5.07340181,16.0905975 5.05667536,15.8986069 4.98976955,15.7691588 C2.53461745,11.0901159 5.06612944,5.42930314 10.2178763,4.21918078 C14.893283,3.12323462 19.0981673,6.28017042 19.8668568,10.5025084 C20.6660902,14.9052012 17.7855045,19.0875412 13.4162646,19.8525945 C11.6796227,20.1529434 10.0200679,19.8984104 8.4346912,19.1275392 C8.29287999,19.0569972 8.09361705,19.0388163 7.94380623,19.0766326 C5.83190999,19.6038794 4.42688812,20.0009508 4,20.0860376 Z M5.85881776,18.2534003 C6.65296056,18.0461378 7.38528822,17.8621468 8.1103435,17.6592477 C8.31396986,17.6032505 8.47323476,17.6323399 8.65649849,17.7348804 C10.0287947,18.5297504 11.4992679,18.8250086 13.0715543,18.5712029 C16.6924673,17.991595 19.1730727,14.6033978 18.6203726,10.9955751 C18.0436736,7.254668 14.5391185,4.7464276 10.8338461,5.42639419 C6.35333892,6.24962647 3.97309223,11.2450174 6.2035281,15.2019139 C6.4493342,15.6404378 6.51769448,16.0026018 6.35042997,16.469488 C6.15334875,17.0294605 6.03044569,17.6148862 5.85881776,18.2534003 Z M14.1042308,15.8047934 C12.5464892,15.7487961 10.0651565,14.5190384 8.36560369,11.5679106 C7.76199698,10.5185076 7.84999266,9.32220278 8.73358561,8.50042497 C9.03320725,8.2218932 9.40700707,8.29098072 9.75826254,8.35061415 C9.84480374,8.36297718 9.93498113,8.49606155 9.97788811,8.59205684 C10.2047861,9.10766787 10.4273206,9.6232789 10.6244018,10.1505257 C10.7291239,10.430512 10.5378606,10.6901356 10.1320624,11.1555672 C10.0047959,11.3010146 9.98006982,11.4384624 10.0797013,11.6079087 C10.7320329,12.7140361 11.6461698,13.5161785 12.8482925,13.9852464 C13.0242839,14.0543339 13.156641,14.0099725 13.2679083,13.8717974 C13.9049679,13.0965628 13.969692,12.8689376 14.3049482,13.0274753 C15.9172327,13.799801 16.0423174,13.8303449 16.050317,14.0121542 C16.1034053,15.3713601 14.8583756,15.8607906 14.1042308,15.8047934 Z"/>
</svg>
