<svg xmlns="http://www.w3.org/2000/svg" width="24" height="24" viewBox="0 0 24 24">
  <path d="M12.0007273,4 C7.58254545,4 4,7.58109091 4,12 C4,15.2756364 5.97018182,18.0909091 8.78909091,19.328 C8.76654545,18.768 8.78545455,18.0981818 8.92727273,17.4901818 C9.08145455,16.8407273 9.95709091,13.1309091 9.95709091,13.1309091 C9.95709091,13.1309091 9.70109091,12.6210909 9.70109091,11.8654545 C9.70109091,10.6807273 10.3890909,9.79418182 11.2450909,9.79418182 C11.9716364,9.79418182 12.3229091,10.3410909 12.3229091,10.9956364 C12.3229091,11.7258182 11.856,12.8210909 11.6167273,13.8334545 C11.416,14.6829091 12.0421818,15.3745455 12.8778182,15.3745455 C14.3941818,15.3745455 15.4145455,13.4283636 15.4145455,11.1214545 C15.4145455,9.36872727 14.2341818,8.056 12.0858182,8.056 C9.65963636,8.056 8.14836364,9.864 8.14836364,11.8858182 C8.14836364,12.5832727 8.35345455,13.0749091 8.67563636,13.4552727 C8.824,13.6298182 8.84436364,13.7010909 8.78981818,13.9010909 C8.75272727,14.0487273 8.66472727,14.4021818 8.62690909,14.5432727 C8.57381818,14.7461818 8.41018182,14.8189091 8.22618182,14.7432727 C7.10909091,14.2872727 6.58836364,13.0625455 6.58836364,11.688 C6.58836364,9.41527273 8.504,6.68945455 12.3054545,6.68945455 C15.3592727,6.68945455 17.3709091,8.89963636 17.3709091,11.2734545 C17.3709091,14.4109091 15.6254545,16.7549091 13.0530909,16.7549091 C12.1890909,16.7549091 11.376,16.2887273 11.0989091,15.7592727 C11.0989091,15.7592727 10.6334545,17.6014545 10.5367273,17.9578182 C10.3665455,18.5745455 10.0349091,19.1905455 9.73090909,19.6705455 C10.4523636,19.8836364 11.2123636,20 12.0007273,20 C16.4181818,20 20,16.4189091 20,12 C20,7.58109091 16.4181818,4 12.0007273,4 Z"/>
</svg>
