<svg width="24" height="24" viewBox="0 0 24 24" fill="none" xmlns="http://www.w3.org/2000/svg">
<g id="social-twitter">
<path id="twitter" d="M20 6.53891C19.4109 6.8 18.7782 6.97673 18.1149 7.056C18.7927 6.64945 19.3127 6.00727 19.5578 5.24C18.9244 5.61673 18.2218 5.89018 17.4742 6.03709C16.8749 5.39855 16.0211 5 15.0771 5C13.2647 5 11.7942 6.46982 11.7942 8.28291C11.7942 8.54036 11.8233 8.79055 11.8785 9.03055C9.15055 8.89382 6.73236 7.58764 5.11273 5.60073C4.83055 6.08582 4.66909 6.64945 4.66909 7.25164C4.66909 8.38982 5.24873 9.39564 6.12873 9.984C5.59127 9.968 5.08436 9.81818 4.64218 9.57309V9.61455C4.64218 11.2058 5.77382 12.5324 7.27491 12.8342C7 12.9091 6.70909 12.9498 6.41091 12.9498C6.19927 12.9498 5.99345 12.9287 5.79273 12.8902C6.21018 14.1942 7.42182 15.1433 8.85891 15.1702C7.736 16.0502 6.32145 16.576 4.78255 16.576C4.51782 16.576 4.25673 16.56 4 16.5302C5.45236 17.4604 7.17818 18.0044 9.03273 18.0044C15.0705 18.0044 18.3716 13.0029 18.3716 8.66473C18.3716 8.52291 18.3687 8.38109 18.3629 8.23927C19.0029 7.77527 19.5593 7.19709 20 6.53891Z" fill="black"/>
</g>
</svg>
