<svg xmlns="http://www.w3.org/2000/svg" width="24" height="24" viewBox="0 0 24 24">
  <path d="M12.2151579,12.4951795 C13.8677895,12.4951795 15.6075789,13.2861538 15.6075789,13.633641 L15.6075789,14.2289231 L8.82189474,14.2289231 L8.82189474,13.633641 C8.82189474,13.2861538 10.5625263,12.4951795 12.2151579,12.4951795 Z M12.2151579,9.89374359 C11.5698568,9.89374359 11.0467368,9.384037 11.0467368,8.75528205 C11.0467368,8.12652711 11.5698568,7.61682051 12.2151579,7.61682051 C12.860459,7.61682051 13.3835789,8.12652711 13.3835789,8.75528205 C13.3835789,9.384037 12.860459,9.89374359 12.2151579,9.89374359 Z M11.9995789,4.04348718 C7.58147368,4.04348718 4,7.53353846 4,11.838359 C4,16.1435897 7.58147368,19.633641 11.9995789,19.633641 C16.4181053,19.633641 20,16.1435897 20,11.838359 C20,7.53353846 16.4181053,4.04348718 11.9995789,4.04348718 Z M12.2151579,6.58707692 C13.4450526,6.58707692 14.4408421,7.55733333 14.4408421,8.75528205 C14.4408421,9.95323077 13.4450526,10.9230769 12.2151579,10.9230769 C10.9861053,10.9230769 9.99031579,9.95323077 9.99031579,8.75528205 C9.99031579,7.55733333 10.9861053,6.58707692 12.2151579,6.58707692 Z M16.6652632,15.2594872 L7.76463158,15.2594872 L7.76463158,13.633641 C7.76463158,12.1915897 10.7296842,11.4650256 12.2147368,11.4650256 C13.6993684,11.4650256 16.6648421,12.1915897 16.6648421,13.633641 L16.6648421,15.2594872 L16.6652632,15.2594872 Z"/>
</svg>
